<svg version="1.0" xmlns="http://www.w3.org/2000/svg" width="32" height="32" viewBox="0 0 203.000000 203.000000" preserveAspectRatio="xMidYMid meet">
  <g transform="translate(0.000000,203.000000) scale(0.100000,-0.100000)" fill="#f26d21" stroke="none">
    <path d="M844 2015 c-221 -40 -388 -127 -545 -284 -181 -181 -281 -402 -296 -656 -24 -421 222 -822 605 -985 150 -64 211 -75 402 -75 152 0 186 3 260 23 176 48 325 135 456 266 131 131 218 280 266 456 20 74 23 108 23 260 0 153 -3 185 -23 254 -65 224 -177 396 -347 532 -223 179 -528 259 -801 209z m696 -550 l0 -155 -356 0 c-238 0 -369 -4 -395 -11 -97 -30 -149 -119 -149 -258 0 -103 22 -173 68 -219 60 -60 79 -62 476 -62 l356 0 0 -170 0 -170 -382 0 c-414 0 -439 3 -544 56 -66 33 -143 112 -178 182 -57 112 -85 311 -66 469 21 178 75 303 164 379 51 44 146 90 211 102 28 5 218 10 423 11 l372 1 0 -155z m-471 -441 c15 -15 -127 -94 -169 -94 -53 0 -118 63 -135 131 l-6 26 153 -29 c84 -16 155 -31 157 -34z m415 29 c-19 -82 -60 -123 -122 -123 -31 0 -143 52 -162 75 -15 19 -16 19 130 49 157 33 162 33 154 -1z" />
  </g>
</svg>
