<svg version="1.0" xmlns="http://www.w3.org/2000/svg" width="32" height="32" viewBox="0 0 128.000000 128.000000" preserveAspectRatio="xMidYMid meet">
  <g transform="translate(0.000000,128.000000) scale(0.100000,-0.100000)" fill="#fd3e13ff" stroke="none">
    <path d="M515 1266 c-97 -23 -168 -53 -242 -105 -115 -81 -195 -189 -240 -325
-22 -69 -27 -98 -27 -196 0 -98 5 -127 27 -196 47 -141 131 -252 254 -334 112
-75 210 -104 353 -104 98 0 127 4 197 28 195 64 345 215 410 410 22 69 27 98
27 196 0 98 -5 127 -27 196 -47 141 -131 252 -254 334 -135 90 -331 130 -478
96z m-97 -493 c-3 -27 -5 -28 -70 -31 -55 -2 -68 -6 -68 -19 0 -9 -10 -67 -21
-130 l-21 -113 -49 0 c-26 0 -50 3 -53 8 -2 4 7 61 20 127 13 66 24 121 24
123 0 1 -29 2 -65 2 -36 0 -65 3 -65 8 0 4 3 17 6 30 6 22 8 22 186 22 l179 0
-3 -27z m134 22 c3 -3 -4 -55 -14 -116 -11 -60 -17 -116 -14 -124 4 -11 23
-15 70 -15 74 0 67 -10 91 125 25 147 18 135 77 135 l51 0 -7 -47 c-3 -26 -16
-98 -27 -160 l-21 -113 -138 0 -139 0 -34 43 -35 42 19 105 c10 58 21 111 24
118 4 12 86 18 97 7z m648 -12 c0 -10 -3 -35 -6 -55 l-7 -38 -54 0 c-54 0 -55
1 -49 25 6 25 6 25 -63 25 -77 0 -85 -6 -94 -62 l-6 -38 131 0 c115 0 129 -2
124 -16 -3 -9 -6 -20 -6 -25 0 -5 -57 -9 -129 -9 l-128 0 -9 -52 -9 -53 -44
-3 c-24 -2 -47 0 -52 5 -4 4 1 58 12 118 20 110 20 110 67 152 l47 42 138 1
c124 0 137 -2 137 -17z" />
  </g>
</svg>
